<?xml version="1.0" encoding="UTF-8" standalone="no"?>
<!DOCTYPE svg PUBLIC "-//W3C//DTD SVG 1.0//EN" "http://www.w3.org/TR/2001/PR-SVG-20010719/DTD/svg10.dtd">
<svg width="500pt" height="325pt" viewBox="133 78 1196 771" xmlns="http://www.w3.org/2000/svg" xmlns:xlink="http://www.w3.org/1999/xlink">
  <g>
    <rect style="fill: #e5e5e5" x="1030" y="340" width="80" height="150" rx="10" ry="10"/>
    <rect style="fill: none; fill-opacity:0; stroke-width: 2; stroke-linejoin: round; stroke: #000000" x="1030" y="340" width="80" height="150" rx="10" ry="10"/>
  </g>
  <text font-size="22.5778" style="fill: #000000;text-anchor:middle;font-family:sans-serif;font-style:normal;font-weight:normal" x="1070" y="422.825">
    <tspan x="1070" y="422.825">MEMIF</tspan>
  </text>
  <g>
    <rect style="fill: #e5e5e5" x="520" y="340" width="80" height="140" rx="10" ry="10"/>
    <rect style="fill: none; fill-opacity:0; stroke-width: 2; stroke-linejoin: round; stroke: #000000" x="520" y="340" width="80" height="140" rx="10" ry="10"/>
  </g>
  <g>
    <rect style="fill: #e5e5e5" x="1030" y="160" width="80" height="140" rx="10" ry="10"/>
    <rect style="fill: none; fill-opacity:0; stroke-width: 2; stroke-linejoin: round; stroke: #000000" x="1030" y="160" width="80" height="140" rx="10" ry="10"/>
  </g>
  <g>
    <rect style="fill: #e5e5e5" x="520" y="160" width="80" height="140" rx="10" ry="10"/>
    <rect style="fill: none; fill-opacity:0; stroke-width: 2; stroke-linejoin: round; stroke: #000000" x="520" y="160" width="80" height="140" rx="10" ry="10"/>
  </g>
  <g>
    <rect style="fill: #000000" x="1108" y="668" width="200" height="180" rx="10" ry="10"/>
    <rect style="fill: none; fill-opacity:0; stroke-width: 2; stroke-linejoin: round; stroke: #000000" x="1108" y="668" width="200" height="180" rx="10" ry="10"/>
  </g>
  <g>
    <rect style="fill: #000000" x="848" y="668" width="200" height="180" rx="10" ry="10"/>
    <rect style="fill: none; fill-opacity:0; stroke-width: 2; stroke-linejoin: round; stroke: #000000" x="848" y="668" width="200" height="180" rx="10" ry="10"/>
  </g>
  <g>
    <rect style="fill: #000000" x="588" y="668" width="200" height="180" rx="10" ry="10"/>
    <rect style="fill: none; fill-opacity:0; stroke-width: 2; stroke-linejoin: round; stroke: #000000" x="588" y="668" width="200" height="180" rx="10" ry="10"/>
  </g>
  <g>
    <rect style="fill: #000000" x="170" y="668" width="360" height="180" rx="10" ry="10"/>
    <rect style="fill: none; fill-opacity:0; stroke-width: 2; stroke-linejoin: round; stroke: #000000" x="170" y="668" width="360" height="180" rx="10" ry="10"/>
  </g>
  <g>
    <rect style="fill: #000000" x="628" y="148" width="380" height="360"/>
    <rect style="fill: none; fill-opacity:0; stroke-width: 2; stroke: #000000" x="628" y="148" width="380" height="360"/>
  </g>
  <g>
    <rect style="fill: #000000" x="1148" y="108" width="180" height="400" rx="10" ry="10"/>
    <rect style="fill: none; fill-opacity:0; stroke-width: 2; stroke-linejoin: round; stroke: #000000" x="1148" y="108" width="180" height="400" rx="10" ry="10"/>
  </g>
  <g>
    <rect style="fill: #000000" x="164" y="84" width="340" height="420" rx="10" ry="10"/>
    <rect style="fill: none; fill-opacity:0; stroke-width: 2; stroke-linejoin: round; stroke: #000000" x="164" y="84" width="340" height="420" rx="10" ry="10"/>
  </g>
  <g>
    <rect style="fill: #e5e5e5" x="620" y="320" width="380" height="180"/>
    <rect style="fill: none; fill-opacity:0; stroke-width: 2; stroke: #000000" x="620" y="320" width="380" height="180"/>
  </g>
  <g>
    <rect style="fill: #e5e5e5" x="620" y="140" width="380" height="180"/>
    <rect style="fill: none; fill-opacity:0; stroke-width: 2; stroke: #000000" x="620" y="140" width="380" height="180"/>
  </g>
  <g>
    <rect style="fill: #e5e5e5" x="160" y="80" width="337.071" height="417.071" rx="10" ry="10"/>
    <rect style="fill: none; fill-opacity:0; stroke-width: 2; stroke-linejoin: round; stroke: #000000" x="160" y="80" width="337.071" height="417.071" rx="10" ry="10"/>
  </g>
  <text font-size="22.5778" style="fill: #000000;text-anchor:start;font-family:sans-serif;font-style:normal;font-weight:700" x="180" y="120">
    <tspan x="180" y="120">CPU</tspan>
  </text>
  <g>
    <rect style="fill: #ffffff" x="360" y="100" width="120" height="380" rx="10" ry="10"/>
    <rect style="fill: none; fill-opacity:0; stroke-width: 2; stroke-linejoin: round; stroke: #000000" x="360" y="100" width="120" height="380" rx="10" ry="10"/>
  </g>
  <text font-size="22.5778" style="fill: #000000;text-anchor:middle;font-family:sans-serif;font-style:normal;font-weight:normal" x="420" y="133.714">
    <tspan x="420" y="133.714">ReconOS</tspan>
    <tspan x="420" y="161.936">Linux</tspan>
  </text>
  <g>
    <rect style="fill: #ffffff" x="180" y="140" width="140" height="100" rx="10" ry="10"/>
    <rect style="fill: none; fill-opacity:0; stroke-width: 2; stroke-linejoin: round; stroke: #000000" x="180" y="140" width="140" height="100" rx="10" ry="10"/>
  </g>
  <g>
    <rect style="fill: #90ee90" x="180" y="260" width="140" height="100" rx="10" ry="10"/>
    <rect style="fill: none; fill-opacity:0; stroke-width: 2; stroke-linejoin: round; stroke: #000000" x="180" y="260" width="140" height="100" rx="10" ry="10"/>
  </g>
  <text font-size="22.5778" style="fill: #000000;text-anchor:middle;font-family:sans-serif;font-style:normal;font-weight:normal" x="250" y="303.714">
    <tspan x="250" y="303.714">Delegate</tspan>
    <tspan x="250" y="331.936">Thread</tspan>
  </text>
  <text font-size="22.5778" style="fill: #000000;text-anchor:middle;font-family:sans-serif;font-style:normal;font-weight:normal" x="250" y="183.714">
    <tspan x="250" y="183.714">Software</tspan>
    <tspan x="250" y="211.936">Thread</tspan>
  </text>
  <g>
    <path style="fill: none; fill-opacity:0; stroke-width: 8; stroke: #bfbfbf" d="M 336.444 400 C 360,400 400,400 400,380 C 400,360 400,320 400,300 C 400,280 400,240 400,220 C 400,200 360,200 336.444,200"/>
    <polygon style="fill: #bfbfbf" points="328.944,400 338.944,395 336.444,400 338.944,405 "/>
    <polygon style="fill: none; fill-opacity:0; stroke-width: 8; stroke: #bfbfbf" points="328.944,400 338.944,395 336.444,400 338.944,405 "/>
    <polygon style="fill: #bfbfbf" points="328.944,200 338.944,195 336.444,200 338.944,205 "/>
    <polygon style="fill: none; fill-opacity:0; stroke-width: 8; stroke: #bfbfbf" points="328.944,200 338.944,195 336.444,200 338.944,205 "/>
  </g>
  <g>
    <line style="fill: none; fill-opacity:0; stroke-width: 8; stroke: #bfbfbf" x1="400" y1="280" x2="336.444" y2="280"/>
    <polygon style="fill: #bfbfbf" points="328.944,280 338.944,275 336.444,280 338.944,285 "/>
    <polygon style="fill: none; fill-opacity:0; stroke-width: 8; stroke: #bfbfbf" points="328.944,280 338.944,275 336.444,280 338.944,285 "/>
  </g>
  <g>
    <rect style="fill: #90ee90" x="660" y="200" width="300" height="100" rx="10" ry="10"/>
    <rect style="fill: none; fill-opacity:0; stroke-width: 2; stroke-linejoin: round; stroke: #000000" x="660" y="200" width="300" height="100" rx="10" ry="10"/>
  </g>
  <text font-size="22.5778" style="fill: #000000;text-anchor:start;font-family:sans-serif;font-style:normal;font-weight:normal" x="810" y="243.714">
    <tspan x="810" y="243.714">Hardware</tspan>
    <tspan x="810" y="271.936">Thread</tspan>
  </text>
  <g>
    <rect style="fill: #bfbfbf" x="660" y="200" width="100" height="100" rx="10" ry="10"/>
    <rect style="fill: none; fill-opacity:0; stroke-width: 2; stroke-linejoin: round; stroke: #000000" x="660" y="200" width="100" height="100" rx="10" ry="10"/>
  </g>
  <g>
    <ellipse style="fill: #ffffff" cx="720" cy="220" rx="10" ry="10"/>
    <ellipse style="fill: none; fill-opacity:0; stroke-width: 2; stroke-linejoin: round; stroke: #000000" cx="720" cy="220" rx="10" ry="10"/>
  </g>
  <g>
    <ellipse style="fill: #ffffff" cx="740" cy="260" rx="10" ry="10"/>
    <ellipse style="fill: none; fill-opacity:0; stroke-width: 2; stroke-linejoin: round; stroke: #000000" cx="740" cy="260" rx="10" ry="10"/>
  </g>
  <g>
    <ellipse style="fill: #ffffff" cx="680" cy="250" rx="10" ry="10"/>
    <ellipse style="fill: none; fill-opacity:0; stroke-width: 2; stroke-linejoin: round; stroke: #000000" cx="680" cy="250" rx="10" ry="10"/>
  </g>
  <g>
    <line style="fill: none; fill-opacity:0; stroke-width: 2; stroke-linejoin: round; stroke: #000000" x1="724.883" y1="229.766" x2="732.105" y2="244.209"/>
    <polygon style="fill: #000000" points="734.117,248.234 728.751,244.209 732.105,244.209 734.117,241.526 "/>
    <polygon style="fill: none; fill-opacity:0; stroke-width: 2; stroke: #000000" points="734.117,248.234 728.751,244.209 732.105,244.209 734.117,241.526 "/>
  </g>
  <g>
    <line style="fill: none; fill-opacity:0; stroke-width: 2; stroke: #000000" x1="711.201" y1="226.599" x2="694.188" y2="239.359"/>
    <polygon style="fill: #000000" points="690.588,242.059 693.588,236.059 694.188,239.359 697.188,240.859 "/>
    <polygon style="fill: none; fill-opacity:0; stroke-width: 2; stroke: #000000" points="690.588,242.059 693.588,236.059 694.188,239.359 697.188,240.859 "/>
  </g>
  <g>
    <line style="fill: none; fill-opacity:0; stroke-width: 2; stroke: #000000" x1="690.854" y1="251.809" x2="722.501" y2="257.084"/>
    <polygon style="fill: #000000" points="726.94,257.823 720.528,259.796 722.501,257.084 721.515,253.878 "/>
    <polygon style="fill: none; fill-opacity:0; stroke-width: 2; stroke: #000000" points="726.94,257.823 720.528,259.796 722.501,257.084 721.515,253.878 "/>
  </g>
  <text font-size="16.9333" style="fill: #000000;text-anchor:start;font-family:sans-serif;font-style:normal;font-weight:normal" x="680" y="290">
    <tspan x="680" y="290">OSFSM</tspan>
  </text>
  <g>
    <rect style="fill: #add8e6" x="660" y="380" width="300" height="100" rx="10" ry="10"/>
    <rect style="fill: none; fill-opacity:0; stroke-width: 2; stroke-linejoin: round; stroke: #000000" x="660" y="380" width="300" height="100" rx="10" ry="10"/>
  </g>
  <text font-size="22.5778" style="fill: #000000;text-anchor:start;font-family:sans-serif;font-style:normal;font-weight:normal" x="810" y="423.714">
    <tspan x="810" y="423.714">Hardware</tspan>
    <tspan x="810" y="451.936">Thread</tspan>
  </text>
  <g>
    <rect style="fill: #bfbfbf" x="660" y="380" width="100" height="100" rx="10" ry="10"/>
    <rect style="fill: none; fill-opacity:0; stroke-width: 2; stroke-linejoin: round; stroke: #000000" x="660" y="380" width="100" height="100" rx="10" ry="10"/>
  </g>
  <g>
    <ellipse style="fill: #ffffff" cx="720" cy="400" rx="10" ry="10"/>
    <ellipse style="fill: none; fill-opacity:0; stroke-width: 2; stroke-linejoin: round; stroke: #000000" cx="720" cy="400" rx="10" ry="10"/>
  </g>
  <g>
    <ellipse style="fill: #ffffff" cx="740" cy="440" rx="10" ry="10"/>
    <ellipse style="fill: none; fill-opacity:0; stroke-width: 2; stroke-linejoin: round; stroke: #000000" cx="740" cy="440" rx="10" ry="10"/>
  </g>
  <g>
    <ellipse style="fill: #ffffff" cx="680" cy="430" rx="10" ry="10"/>
    <ellipse style="fill: none; fill-opacity:0; stroke-width: 2; stroke-linejoin: round; stroke: #000000" cx="680" cy="430" rx="10" ry="10"/>
  </g>
  <g>
    <line style="fill: none; fill-opacity:0; stroke-width: 2; stroke-linejoin: round; stroke: #000000" x1="724.883" y1="409.766" x2="732.105" y2="424.209"/>
    <polygon style="fill: #000000" points="734.117,428.234 728.751,424.209 732.105,424.209 734.117,421.526 "/>
    <polygon style="fill: none; fill-opacity:0; stroke-width: 2; stroke: #000000" points="734.117,428.234 728.751,424.209 732.105,424.209 734.117,421.526 "/>
  </g>
  <g>
    <line style="fill: none; fill-opacity:0; stroke-width: 2; stroke: #000000" x1="711.201" y1="406.599" x2="694.188" y2="419.359"/>
    <polygon style="fill: #000000" points="690.588,422.059 693.588,416.059 694.188,419.359 697.188,420.859 "/>
    <polygon style="fill: none; fill-opacity:0; stroke-width: 2; stroke: #000000" points="690.588,422.059 693.588,416.059 694.188,419.359 697.188,420.859 "/>
  </g>
  <g>
    <line style="fill: none; fill-opacity:0; stroke-width: 2; stroke: #000000" x1="690.854" y1="431.809" x2="722.501" y2="437.084"/>
    <polygon style="fill: #000000" points="726.94,437.823 720.528,439.796 722.501,437.084 721.515,433.878 "/>
    <polygon style="fill: none; fill-opacity:0; stroke-width: 2; stroke: #000000" points="726.94,437.823 720.528,439.796 722.501,437.084 721.515,433.878 "/>
  </g>
  <text font-size="16.9333" style="fill: #000000;text-anchor:start;font-family:sans-serif;font-style:normal;font-weight:normal" x="680" y="470">
    <tspan x="680" y="470">OSFSM</tspan>
  </text>
  <g>
    <rect style="fill: #ffffff" x="620" y="140" width="260" height="40"/>
    <rect style="fill: none; fill-opacity:0; stroke-width: 2; stroke: #000000" x="620" y="140" width="260" height="40"/>
  </g>
  <g>
    <rect style="fill: #ffffff" x="620" y="320" width="260" height="40"/>
    <rect style="fill: none; fill-opacity:0; stroke-width: 2; stroke: #000000" x="620" y="320" width="260" height="40"/>
  </g>
  <text font-size="22.5778" style="fill: #000000;text-anchor:middle;font-family:sans-serif;font-style:normal;font-weight:normal" x="750" y="167.825">
    <tspan x="750" y="167.825">Reconfigurable Slot 0</tspan>
  </text>
  <text font-size="22.5778" style="fill: #000000;text-anchor:middle;font-family:sans-serif;font-style:normal;font-weight:normal" x="750" y="347.825">
    <tspan x="750" y="347.825">Reconfigurable Slot 1</tspan>
  </text>
  <g>
    <path style="fill: none; fill-opacity:0; stroke-width: 8; stroke: #7f7f7f" d="M 336.444 320 C 360,320 400,320 420,320 C 440,320 440,260 460,260 C 480,260 620,260 643.556,260"/>
    <polygon style="fill: #7f7f7f" points="328.944,320 338.944,315 336.444,320 338.944,325 "/>
    <polygon style="fill: none; fill-opacity:0; stroke-width: 8; stroke: #7f7f7f" points="328.944,320 338.944,315 336.444,320 338.944,325 "/>
    <polygon style="fill: #7f7f7f" points="651.056,260 641.056,265 643.556,260 641.056,255 "/>
    <polygon style="fill: none; fill-opacity:0; stroke-width: 8; stroke: #7f7f7f" points="651.056,260 641.056,265 643.556,260 641.056,255 "/>
  </g>
  <g>
    <path style="fill: none; fill-opacity:0; stroke-width: 8; stroke: #7f7f7f" d="M 336.444 440 C 360,440 400,440 420,440 C 440,440 440,440 460,440 C 480,440 620,440 643.556,440"/>
    <polygon style="fill: #7f7f7f" points="328.944,440 338.944,435 336.444,440 338.944,445 "/>
    <polygon style="fill: none; fill-opacity:0; stroke-width: 8; stroke: #7f7f7f" points="328.944,440 338.944,435 336.444,440 338.944,445 "/>
    <polygon style="fill: #7f7f7f" points="651.056,440 641.056,445 643.556,440 641.056,435 "/>
    <polygon style="fill: none; fill-opacity:0; stroke-width: 8; stroke: #7f7f7f" points="651.056,440 641.056,445 643.556,440 641.056,435 "/>
  </g>
  <g>
    <rect style="fill: #add8e6" x="180" y="380" width="140" height="100" rx="10" ry="10"/>
    <rect style="fill: none; fill-opacity:0; stroke-width: 2; stroke-linejoin: round; stroke: #000000" x="180" y="380" width="140" height="100" rx="10" ry="10"/>
  </g>
  <text font-size="22.5778" style="fill: #000000;text-anchor:middle;font-family:sans-serif;font-style:normal;font-weight:normal" x="250" y="423.714">
    <tspan x="250" y="423.714">Delegate</tspan>
    <tspan x="250" y="451.936">Thread</tspan>
  </text>
  <g>
    <rect style="fill: #e5e5e5" x="1140" y="100" width="180" height="400" rx="10" ry="10"/>
    <rect style="fill: none; fill-opacity:0; stroke-width: 2; stroke-linejoin: round; stroke: #000000" x="1140" y="100" width="180" height="400" rx="10" ry="10"/>
  </g>
  <g>
    <line style="fill: none; fill-opacity:0; stroke-width: 10; stroke-linejoin: round; stroke: #000000" x1="155" y1="580" x2="1305" y2="580"/>
    <polygon style="fill: #000000" points="155,575 145,580 155,585 "/>
    <polygon style="fill: none; fill-opacity:0; stroke-width: 10; stroke: #000000" points="155,575 145,580 155,585 "/>
    <polygon style="fill: #000000" points="1305,585 1315,580 1305,575 "/>
    <polygon style="fill: none; fill-opacity:0; stroke-width: 10; stroke: #000000" points="1305,585 1315,580 1305,575 "/>
  </g>
  <text font-size="22.5778" style="fill: #000000;text-anchor:middle;font-family:sans-serif;font-style:normal;font-weight:700" x="1230" y="133.714">
    <tspan x="1230" y="133.714">Memory</tspan>
    <tspan x="1230" y="161.936">Subsystem</tspan>
  </text>
  <g>
    <path style="fill: none; fill-opacity:0; stroke-width: 8; stroke: #7f7f7f" d="M 976.444 260 C 1000,260 1100,260 1123.56,260"/>
    <polygon style="fill: #7f7f7f" points="968.944,260 978.944,255 976.444,260 978.944,265 "/>
    <polygon style="fill: none; fill-opacity:0; stroke-width: 8; stroke: #7f7f7f" points="968.944,260 978.944,255 976.444,260 978.944,265 "/>
    <polygon style="fill: #7f7f7f" points="1131.06,260 1121.06,265 1123.56,260 1121.06,255 "/>
    <polygon style="fill: none; fill-opacity:0; stroke-width: 8; stroke: #7f7f7f" points="1131.06,260 1121.06,265 1123.56,260 1121.06,255 "/>
  </g>
  <g>
    <rect style="fill: #ffffff" x="1160" y="300" width="140" height="80" rx="10" ry="10"/>
    <rect style="fill: none; fill-opacity:0; stroke-width: 2; stroke-linejoin: round; stroke: #000000" x="1160" y="300" width="140" height="80" rx="10" ry="10"/>
  </g>
  <text font-size="22.5778" style="fill: #000000;text-anchor:middle;font-family:sans-serif;font-style:normal;font-weight:normal" x="1230" y="347.825">
    <tspan x="1230" y="347.825">MMU</tspan>
  </text>
  <text font-size="22.5778" style="fill: #000000;text-anchor:middle;font-family:sans-serif;font-style:normal;font-weight:700" x="280" y="567.825">
    <tspan x="280" y="567.825">System Bus</tspan>
  </text>
  <g>
    <path style="fill: none; fill-opacity:0; stroke-width: 8; stroke: #7f7f7f" d="M 400 516.444 C 400,560 400,540 400,563.556"/>
    <polygon style="fill: #7f7f7f" points="400,508.944 405,518.944 400,516.444 395,518.944 "/>
    <polygon style="fill: none; fill-opacity:0; stroke-width: 8; stroke: #7f7f7f" points="400,508.944 405,518.944 400,516.444 395,518.944 "/>
    <polygon style="fill: #7f7f7f" points="400,571.056 395,561.056 400,563.556 405,561.056 "/>
    <polygon style="fill: none; fill-opacity:0; stroke-width: 8; stroke: #7f7f7f" points="400,571.056 395,561.056 400,563.556 405,561.056 "/>
  </g>
  <g>
    <rect style="fill: #e5e5e5" x="160" y="660" width="360" height="180" rx="10" ry="10"/>
    <rect style="fill: none; fill-opacity:0; stroke-width: 2; stroke-linejoin: round; stroke: #000000" x="160" y="660" width="360" height="180" rx="10" ry="10"/>
  </g>
  <text font-size="22.5778" style="fill: #000000;text-anchor:middle;font-family:sans-serif;font-style:normal;font-weight:700" x="340" y="757.825">
    <tspan x="340" y="757.825">Memory</tspan>
  </text>
  <g>
    <rect style="fill: #e5e5e5" x="580" y="660" width="200" height="180" rx="10" ry="10"/>
    <rect style="fill: none; fill-opacity:0; stroke-width: 2; stroke-linejoin: round; stroke: #000000" x="580" y="660" width="200" height="180" rx="10" ry="10"/>
  </g>
  <text font-size="22.5778" style="fill: #000000;text-anchor:middle;font-family:sans-serif;font-style:normal;font-weight:700" x="680" y="757.825">
    <tspan x="680" y="757.825">ICAP</tspan>
  </text>
  <g>
    <rect style="fill: #e5e5e5" x="840" y="660" width="200" height="180" rx="10" ry="10"/>
    <rect style="fill: none; fill-opacity:0; stroke-width: 2; stroke-linejoin: round; stroke: #000000" x="840" y="660" width="200" height="180" rx="10" ry="10"/>
  </g>
  <text font-size="22.5778" style="fill: #000000;text-anchor:middle;font-family:sans-serif;font-style:normal;font-weight:700" x="940" y="757.825">
    <tspan x="940" y="757.825">Ethernet</tspan>
  </text>
  <g>
    <rect style="fill: #e5e5e5" x="1100" y="660" width="200" height="180" rx="10" ry="10"/>
    <rect style="fill: none; fill-opacity:0; stroke-width: 2; stroke-linejoin: round; stroke: #000000" x="1100" y="660" width="200" height="180" rx="10" ry="10"/>
  </g>
  <text font-size="22.5778" style="fill: #000000;text-anchor:middle;font-family:sans-serif;font-style:normal;font-weight:700" x="1200" y="729.603">
    <tspan x="1200" y="729.603">other</tspan>
    <tspan x="1200" y="757.825">peripherals</tspan>
    <tspan x="1200" y="786.047">(USB,UART,...)</tspan>
  </text>
  <g>
    <path style="fill: none; fill-opacity:0; stroke-width: 8; stroke: #7f7f7f" d="M 340 596.444 C 340,640 340,620 340,643.556"/>
    <polygon style="fill: #7f7f7f" points="340,588.944 345,598.944 340,596.444 335,598.944 "/>
    <polygon style="fill: none; fill-opacity:0; stroke-width: 8; stroke: #7f7f7f" points="340,588.944 345,598.944 340,596.444 335,598.944 "/>
    <polygon style="fill: #7f7f7f" points="340,651.056 335,641.056 340,643.556 345,641.056 "/>
    <polygon style="fill: none; fill-opacity:0; stroke-width: 8; stroke: #7f7f7f" points="340,651.056 335,641.056 340,643.556 345,641.056 "/>
  </g>
  <g>
    <path style="fill: none; fill-opacity:0; stroke-width: 8; stroke: #7f7f7f" d="M 680 596.444 C 680,640 680,620 680,643.556"/>
    <polygon style="fill: #7f7f7f" points="680,588.944 685,598.944 680,596.444 675,598.944 "/>
    <polygon style="fill: none; fill-opacity:0; stroke-width: 8; stroke: #7f7f7f" points="680,588.944 685,598.944 680,596.444 675,598.944 "/>
    <polygon style="fill: #7f7f7f" points="680,651.056 675,641.056 680,643.556 685,641.056 "/>
    <polygon style="fill: none; fill-opacity:0; stroke-width: 8; stroke: #7f7f7f" points="680,651.056 675,641.056 680,643.556 685,641.056 "/>
  </g>
  <g>
    <path style="fill: none; fill-opacity:0; stroke-width: 8; stroke: #7f7f7f" d="M 940 596.444 C 940,640 940,620 940,643.556"/>
    <polygon style="fill: #7f7f7f" points="940,588.944 945,598.944 940,596.444 935,598.944 "/>
    <polygon style="fill: none; fill-opacity:0; stroke-width: 8; stroke: #7f7f7f" points="940,588.944 945,598.944 940,596.444 935,598.944 "/>
    <polygon style="fill: #7f7f7f" points="940,651.056 935,641.056 940,643.556 945,641.056 "/>
    <polygon style="fill: none; fill-opacity:0; stroke-width: 8; stroke: #7f7f7f" points="940,651.056 935,641.056 940,643.556 945,641.056 "/>
  </g>
  <g>
    <path style="fill: none; fill-opacity:0; stroke-width: 8; stroke: #7f7f7f" d="M 1200 596.444 C 1200,620 1200,620 1200,643.556"/>
    <polygon style="fill: #7f7f7f" points="1200,588.944 1205,598.944 1200,596.444 1195,598.944 "/>
    <polygon style="fill: none; fill-opacity:0; stroke-width: 8; stroke: #7f7f7f" points="1200,588.944 1205,598.944 1200,596.444 1195,598.944 "/>
    <polygon style="fill: #7f7f7f" points="1200,651.056 1195,641.056 1200,643.556 1205,641.056 "/>
    <polygon style="fill: none; fill-opacity:0; stroke-width: 8; stroke: #7f7f7f" points="1200,651.056 1195,641.056 1200,643.556 1205,641.056 "/>
  </g>
  <g>
    <path style="fill: none; fill-opacity:0; stroke-width: 8; stroke: #7f7f7f" d="M 976.444 450 C 1000,450 1100,450 1123.56,450"/>
    <polygon style="fill: #7f7f7f" points="968.944,450 978.944,445 976.444,450 978.944,455 "/>
    <polygon style="fill: none; fill-opacity:0; stroke-width: 8; stroke: #7f7f7f" points="968.944,450 978.944,445 976.444,450 978.944,455 "/>
    <polygon style="fill: #7f7f7f" points="1131.06,450 1121.06,455 1123.56,450 1121.06,445 "/>
    <polygon style="fill: none; fill-opacity:0; stroke-width: 8; stroke: #7f7f7f" points="1131.06,450 1121.06,455 1123.56,450 1121.06,445 "/>
  </g>
  <g>
    <path style="fill: none; fill-opacity:0; stroke-width: 8; stroke: #7f7f7f" d="M 1230 516.444 C 1230,560 1230,540 1230,563.556"/>
    <polygon style="fill: #7f7f7f" points="1230,508.944 1235,518.944 1230,516.444 1225,518.944 "/>
    <polygon style="fill: none; fill-opacity:0; stroke-width: 8; stroke: #7f7f7f" points="1230,508.944 1235,518.944 1230,516.444 1225,518.944 "/>
    <polygon style="fill: #7f7f7f" points="1230,571.056 1225,561.056 1230,563.556 1235,561.056 "/>
    <polygon style="fill: none; fill-opacity:0; stroke-width: 8; stroke: #7f7f7f" points="1230,571.056 1225,561.056 1230,563.556 1235,561.056 "/>
  </g>
  <g>
    <rect style="fill: #ffffff" x="1160" y="200" width="140" height="80" rx="10" ry="10"/>
    <rect style="fill: none; fill-opacity:0; stroke-width: 2; stroke-linejoin: round; stroke: #000000" x="1160" y="200" width="140" height="80" rx="10" ry="10"/>
  </g>
  <text font-size="22.5778" style="fill: #000000;text-anchor:middle;font-family:sans-serif;font-style:normal;font-weight:normal" x="1230" y="247.825">
    <tspan x="1230" y="247.825">Arbiter</tspan>
  </text>
  <g>
    <rect style="fill: #ffffff" x="1160" y="400" width="140" height="80" rx="10" ry="10"/>
    <rect style="fill: none; fill-opacity:0; stroke-width: 2; stroke-linejoin: round; stroke: #000000" x="1160" y="400" width="140" height="80" rx="10" ry="10"/>
  </g>
  <text font-size="22.5778" style="fill: #000000;text-anchor:middle;font-family:sans-serif;font-style:normal;font-weight:normal" x="1230" y="433.714">
    <tspan x="1230" y="433.714">Burst</tspan>
    <tspan x="1230" y="461.936">Generator</tspan>
  </text>
  <text font-size="22.5778" style="fill: #000000;text-anchor:middle;font-family:sans-serif;font-style:normal;font-weight:normal" x="560" y="237.825">
    <tspan x="560" y="237.825">OSIF</tspan>
  </text>
  <text font-size="22.5778" style="fill: #000000;text-anchor:middle;font-family:sans-serif;font-style:normal;font-weight:normal" x="1070" y="237.825">
    <tspan x="1070" y="237.825">MEMIF</tspan>
  </text>
  <text font-size="22.5778" style="fill: #000000;text-anchor:middle;font-family:sans-serif;font-style:normal;font-weight:normal" x="560" y="417.825">
    <tspan x="560" y="417.825">OSIF</tspan>
  </text>
</svg>
